<?xml version="1.0" encoding="utf-8"?>
<!-- Generator: Adobe Illustrator 25.4.1, SVG Export Plug-In . SVG Version: 6.00 Build 0)  -->
<svg version="1.1" id="Layer_1" xmlns="http://www.w3.org/2000/svg" xmlns:xlink="http://www.w3.org/1999/xlink" x="0px" y="0px"
	 viewBox="0 0 612 792" style="enable-background:new 0 0 612 792;" xml:space="preserve">
<style type="text/css">
	.st0{fill:#222222;}
	.st1{fill:#941A1D;}
</style>
<rect x="0.4" y="76.4" class="st0" width="574.3" height="574.3"/>
<g>
	<path class="st1" d="M441.1,492.3c-0.2,0.7-0.3,1.1-0.3,1.4c-0.6,8-0.6,8-9.1,8c-4.7,0-9.3-0.1-14,0c-2.2,0-3.1-0.7-3.1-2.7
		c0-2.3,0-4.5,0-6.8c0-46,0-92.1,0-138.1c0-2.6,0-5.2,0-8c8.9,0,17.2,0,25.5,0c0.2,0.6,0.5,1,0.6,1.5c1.2,6.4,1.2,6,8.1,7
		c8.5,1.2,16.8,3.2,25,4.7c-0.2-81.4-72.3-162.3-177.3-166.6c-112.3-4.7-194.3,78.4-195.1,167.4c0.3,0,0.8,0.2,1,0.1
		c8.8-3.8,18.1-5.7,27.8-5.9c3.1-0.1,4.6-1,4.2-3.9c-0.5-3.4,1.1-4.6,4.8-4.4c6.8,0.3,13.7,0.1,21,0.1c0,52,0,103.7,0,155.7
		c-8.1,0-15.9,0.1-23.6-0.1c-0.8,0-1.9-1.7-2.1-2.7c-0.3-2.1-0.1-4.2-0.1-5.7c-8.6-1.5-16.9-2-24.4-4.4
		c-28.7-9.1-45.1-28.2-49.8-55.6c-3-17.3,1.1-33.4,11.1-48.2c0.9-1.3,1.3-3.1,1.2-4.7c-4.3-53.9,11.9-101.9,49.4-143.4
		c33.1-36.6,75.5-59.8,126.5-68c66.1-10.7,125.9,3.5,177.7,43c38.3,29.2,62.5,66.6,72.9,111.4c4.4,18.9,5.5,38,3.8,57.2
		c-0.1,1.7,0.7,3.7,1.7,5.2c23.2,34.5,10,80.6-28.4,99c-10.1,4.8-20.8,7.1-32.1,7.4C443.1,492.2,442.2,492.2,441.1,492.3z"/>
</g>
<g>
	<path class="st1" d="M241.4,319.7h20l5.6-22.2h22.4l-5.6,22.2h12.5v15h-16.4l-4.1,16.1h20.4v15h-24.2l-5.6,22.2h-22.4l5.6-22.2h-20
		l-5.6,22.2h-22.4l5.6-22.2h-12.5v-15h16.4l4.1-16.1h-20.4v-15H219l5.6-22.2H247L241.4,319.7z M233.5,350.8h20l4.1-16.1h-20
		L233.5,350.8z"/>
	<path class="st1" d="M318,316.3c3.3-1,6.8-2.2,10.4-3.6c3.6-1.4,7.2-2.8,10.6-4.4c3.5-1.6,6.8-3.3,9.9-5.1c3.2-1.8,6-3.7,8.5-5.7
		h18v90.7h-25.7v-65.3c-3.5,1.7-7.3,3.3-11.6,4.8c-4.3,1.4-8.4,2.7-12.4,3.7L318,316.3z"/>
</g>
<g>
	<path class="st1" d="M169.6,577.7v-152H229v28.7h-39.4v31.8h35.1V515h-35.1v62.7H169.6z"/>
	<path class="st1" d="M296.4,577.7c-1-5.3-2-10.7-3.2-16.3c-1.1-5.6-2.3-11.1-3.4-16.6h-34.6c-1.1,5.5-2.2,11.1-3.4,16.7
		c-1.1,5.6-2.2,11-3.1,16.2H228c3.3-16.4,6.5-31.5,9.5-45.4c3-13.9,5.9-27,8.8-39.3c2.9-12.3,5.7-23.9,8.5-35
		c2.8-11,5.7-21.8,8.7-32.3h18.9c2.9,10.5,5.8,21.3,8.6,32.3c2.8,11,5.7,22.7,8.5,35c2.9,12.3,5.8,25.4,8.8,39.3
		c3,13.9,6.2,29,9.5,45.4H296.4z M272.4,460.2c-0.4,2.2-1.1,5.2-2,9c-0.9,3.8-1.8,8.2-2.9,13.2c-1.1,5-2.3,10.5-3.7,16.4
		c-1.4,6-2.7,12.3-4.1,18.8h25.4c-1.4-6.6-2.7-12.9-3.9-18.9c-1.3-6-2.5-11.5-3.6-16.5c-1.1-5-2.1-9.4-3-13.2
		C273.7,465.3,273,462.3,272.4,460.2z"/>
	<path class="st1" d="M388.7,577.7c-5.7-17.4-11.9-34.6-18.5-51.5c-6.7-17-13.7-33-21.2-48v99.6h-19.7v-152h16.2
		c2.8,4.8,5.9,10.7,9.3,17.8c3.4,7,6.9,14.5,10.4,22.5c3.5,8,7.1,16.2,10.6,24.8c3.5,8.6,6.8,16.8,9.9,24.7v-89.7h19.8v152H388.7z"
		/>
</g>
</svg>
